HIERARCHY
ROOT newVegas:Hips
{
	OFFSET 0.000000 96.479958 0.000000
	CHANNELS 6 Xposition Yposition Zposition Xrotation Yrotation Zrotation
	JOINT newVegas:Pelvis
	{
		OFFSET 0.000000 0.000000 0.000000
		CHANNELS 3 Xrotation Yrotation Zrotation
		JOINT newVegas:LeftUpLeg
		{
			OFFSET 18.735201 -5.666702 -4.541200
			CHANNELS 3 Xrotation Yrotation Zrotation
			JOINT newVegas:LeftLeg
			{
				OFFSET -0.021200 -31.938179 0.493100
				CHANNELS 3 Xrotation Yrotation Zrotation
				JOINT newVegas:LeftFoot
				{
					OFFSET 0.021200 -31.938179 -4.336299
					CHANNELS 3 Xrotation Yrotation Zrotation
					JOINT newVegas:LeftToeBase
					{
						OFFSET 0.943001 -26.722000 15.023500
						CHANNELS 3 Xrotation Yrotation Zrotation
						End Site
						{
							OFFSET 0.000000 30.670183 0.000000
						}
					}
				}
				JOINT newVegas:Left_PantLeg
				{
					OFFSET 0.663870 -9.044666 -1.108900
					CHANNELS 3 Xrotation Yrotation Zrotation
					End Site
					{
						OFFSET 1.415995 20.635357 0.000000
					}
				}
			}
		}
		JOINT newVegas:RightUpLeg
		{
			OFFSET -18.735201 -5.666702 -4.541200
			CHANNELS 3 Xrotation Yrotation Zrotation
			JOINT newVegas:RightLeg
			{
				OFFSET 0.018946 -31.938133 0.493100
				CHANNELS 3 Xrotation Yrotation Zrotation
				JOINT newVegas:RightFoot
				{
					OFFSET -0.018946 -31.938126 -4.336299
					CHANNELS 3 Xrotation Yrotation Zrotation
					JOINT newVegas:RightToeBase
					{
						OFFSET -0.943001 -26.722004 15.023500
						CHANNELS 3 Xrotation Yrotation Zrotation
						End Site
						{
							OFFSET 0.000000 30.670187 0.000000
						}
					}
				}
				JOINT newVegas:Right_PantLeg
				{
					OFFSET -0.661674 -9.044716 -1.108900
					CHANNELS 3 Xrotation Yrotation Zrotation
					End Site
					{
						OFFSET -1.415958 20.635269 0.000000
					}
				}
			}
		}
	}
	JOINT newVegas:Spine
	{
		OFFSET 0.000000 10.199997 -0.299500
		CHANNELS 3 Xrotation Yrotation Zrotation
		JOINT newVegas:Spine1
		{
			OFFSET 0.000000 11.900002 -1.516600
			CHANNELS 3 Xrotation Yrotation Zrotation
			JOINT newVegas:Spine2
			{
				OFFSET 0.000000 13.600006 -2.842500
				CHANNELS 3 Xrotation Yrotation Zrotation
				JOINT newVegas:Neck
				{
					OFFSET 0.000000 9.624100 -2.890100
					CHANNELS 3 Xrotation Yrotation Zrotation
					JOINT newVegas:Head
					{
						OFFSET 0.000000 14.068802 -1.351900
						CHANNELS 3 Xrotation Yrotation Zrotation
						JOINT newVegas:Hair_Back
						{
							OFFSET 0.000000 3.231903 -17.524799
							CHANNELS 3 Xrotation Yrotation Zrotation
							End Site
							{
								OFFSET 0.000000 19.849884 0.000000
							}
						}
						JOINT newVegas:Hair_Front
						{
							OFFSET 0.000000 31.260406 4.573800
							CHANNELS 3 Xrotation Yrotation Zrotation
							JOINT newVegas:Hair_Front1
							{
								OFFSET 0.000000 2.284103 11.993300
								CHANNELS 3 Xrotation Yrotation Zrotation
								JOINT newVegas:Hair_Front2
								{
									OFFSET 0.000000 2.284103 11.993300
									CHANNELS 3 Xrotation Yrotation Zrotation
									End Site
									{
										OFFSET 0.000000 12.208862 0.000000
									}
								}
							}
						}
						JOINT newVegas:Jowel
						{
							OFFSET 0.000000 -7.458206 6.864100
							CHANNELS 3 Xrotation Yrotation Zrotation
							End Site
							{
								OFFSET 0.000000 19.849884 0.000000
							}
						}
					}
				}
				JOINT newVegas:LeftShoulder
				{
					OFFSET 15.263000 10.923401 -0.547700
					CHANNELS 3 Xrotation Yrotation Zrotation
					JOINT newVegas:LeftArm
					{
						OFFSET 25.438599 -2.830597 -13.032500
						CHANNELS 3 Xrotation Yrotation Zrotation
						JOINT newVegas:LeftForeArm
						{
							OFFSET 29.960503 0.000000 0.000000
							CHANNELS 3 Xrotation Yrotation Zrotation
							JOINT newVegas:LeftHand
							{
								OFFSET 27.849251 0.000000 0.000000
								CHANNELS 3 Xrotation Yrotation Zrotation
								JOINT newVegas:LeftHandThumb1
								{
									OFFSET 4.487587 -3.305161 6.305391
									CHANNELS 3 Xrotation Yrotation Zrotation
									JOINT newVegas:LeftHandThumb2
									{
										OFFSET 5.480453 -3.164139 3.164143
										CHANNELS 3 Xrotation Yrotation Zrotation
										JOINT newVegas:LeftHandThumb3
										{
											OFFSET 5.159721 -2.978973 2.978967
											CHANNELS 3 Xrotation Yrotation Zrotation
											End Site
											{
												OFFSET 2.494507 5.926697 1.738678
											}
										}
									}
								}
								JOINT newVegas:LeftHandIndex1
								{
									OFFSET 18.578728 -0.527832 5.208049
									CHANNELS 3 Xrotation Yrotation Zrotation
									JOINT newVegas:LeftHandIndex2
									{
										OFFSET 3.192009 0.000000 0.000000
										CHANNELS 3 Xrotation Yrotation Zrotation
										JOINT newVegas:LeftHandIndex3
										{
											OFFSET 3.835129 0.000000 0.000000
											CHANNELS 3 Xrotation Yrotation Zrotation
											End Site
											{
												OFFSET -0.034599 3.816971 0.371180
											}
										}
									}
								}
								JOINT newVegas:LeftHandMiddle1
								{
									OFFSET 18.476105 0.000000 0.000000
									CHANNELS 3 Xrotation Yrotation Zrotation
									JOINT newVegas:LeftHandMiddle2
									{
										OFFSET 3.324875 0.000000 0.000000
										CHANNELS 3 Xrotation Yrotation Zrotation
										JOINT newVegas:LeftHandMiddle3
										{
											OFFSET 4.596550 0.000000 0.000000
											CHANNELS 3 Xrotation Yrotation Zrotation
											End Site
											{
												OFFSET 0.057701 4.578827 0.399218
											}
										}
									}
								}
								JOINT newVegas:LeftHandRing1
								{
									OFFSET 17.732719 0.121887 -4.201567
									CHANNELS 3 Xrotation Yrotation Zrotation
									JOINT newVegas:LeftHandRing2
									{
										OFFSET 2.733170 0.000000 0.000000
										CHANNELS 3 Xrotation Yrotation Zrotation
										JOINT newVegas:LeftHandRing3
										{
											OFFSET 3.178268 0.000000 0.000000
											CHANNELS 3 Xrotation Yrotation Zrotation
											End Site
											{
												OFFSET 0.119102 3.170624 0.185394
											}
										}
									}
								}
								JOINT newVegas:LeftHandPinky1
								{
									OFFSET 15.989624 -0.606689 -7.535461
									CHANNELS 3 Xrotation Yrotation Zrotation
									JOINT newVegas:LeftHandPinky2
									{
										OFFSET 2.538986 0.000000 0.000000
										CHANNELS 3 Xrotation Yrotation Zrotation
										JOINT newVegas:LeftHandPinky3
										{
											OFFSET 2.593102 0.000000 0.000000
											CHANNELS 3 Xrotation Yrotation Zrotation
											End Site
											{
												OFFSET -0.150902 2.584198 0.152708
											}
										}
									}
								}
							}
							JOINT newVegas:Left_Sleeve
							{
								OFFSET 0.267448 -0.649796 0.577675
								CHANNELS 3 Xrotation Yrotation Zrotation
								End Site
								{
									OFFSET 0.000000 15.991241 0.000000
								}
							}
							JOINT newVegas:Left_CapeC
							{
								OFFSET 15.715958 -8.608795 -6.935905
								CHANNELS 3 Xrotation Yrotation Zrotation
								JOINT newVegas:Left_CapeC1
								{
									OFFSET 0.000000 -8.688499 0.000000
									CHANNELS 3 Xrotation Yrotation Zrotation
									End Site
									{
										OFFSET 0.000000 8.688499 0.000000
									}
								}
							}
						}
						JOINT newVegas:Left_CapeB
						{
							OFFSET 26.118385 -8.608795 -7.079235
							CHANNELS 3 Xrotation Yrotation Zrotation
							JOINT newVegas:Left_CapeB1
							{
								OFFSET 0.000000 -8.688499 0.000000
								CHANNELS 3 Xrotation Yrotation Zrotation
								End Site
								{
									OFFSET 0.000000 8.688499 0.000000
								}
							}
						}
						JOINT newVegas:Left_CapeA
						{
							OFFSET 5.115639 -8.608795 -10.395809
							CHANNELS 3 Xrotation Yrotation Zrotation
							JOINT newVegas:Left_CapeA1
							{
								OFFSET 0.000000 -8.688499 0.000000
								CHANNELS 3 Xrotation Yrotation Zrotation
								End Site
								{
									OFFSET 0.000000 8.688499 0.000000
								}
							}
						}
					}
				}
				JOINT newVegas:RightShoulder
				{
					OFFSET -15.263000 10.923401 -0.547700
					CHANNELS 3 Xrotation Yrotation Zrotation
					JOINT newVegas:RightArm
					{
						OFFSET -25.438599 -2.830597 -13.032500
						CHANNELS 3 Xrotation Yrotation Zrotation
						JOINT newVegas:RightForeArm
						{
							OFFSET -29.960503 0.000000 0.000000
							CHANNELS 3 Xrotation Yrotation Zrotation
							JOINT newVegas:RightHand
							{
								OFFSET -27.849251 0.000000 0.000000
								CHANNELS 3 Xrotation Yrotation Zrotation
								JOINT newVegas:RightHandThumb1
								{
									OFFSET -4.487587 -3.305161 6.305391
									CHANNELS 3 Xrotation Yrotation Zrotation
									JOINT newVegas:RightHandThumb2
									{
										OFFSET -5.480453 -3.164139 3.164143
										CHANNELS 3 Xrotation Yrotation Zrotation
										JOINT newVegas:RightHandThumb3
										{
											OFFSET -5.159721 -2.978973 2.978967
											CHANNELS 3 Xrotation Yrotation Zrotation
											End Site
											{
												OFFSET -2.494507 5.926697 1.738678
											}
										}
									}
								}
								JOINT newVegas:RightHandIndex1
								{
									OFFSET -18.578728 -0.527832 5.208049
									CHANNELS 3 Xrotation Yrotation Zrotation
									JOINT newVegas:RightHandIndex2
									{
										OFFSET -3.192009 0.000000 0.000000
										CHANNELS 3 Xrotation Yrotation Zrotation
										JOINT newVegas:RightHandIndex3
										{
											OFFSET -3.835129 0.000000 0.000000
											CHANNELS 3 Xrotation Yrotation Zrotation
											End Site
											{
												OFFSET 0.034599 3.816971 0.371180
											}
										}
									}
								}
								JOINT newVegas:RightHandMiddle1
								{
									OFFSET -18.476105 0.000000 0.000000
									CHANNELS 3 Xrotation Yrotation Zrotation
									JOINT newVegas:RightHandMiddle2
									{
										OFFSET -3.324875 0.000000 0.000000
										CHANNELS 3 Xrotation Yrotation Zrotation
										JOINT newVegas:RightHandMiddle3
										{
											OFFSET -4.596550 0.000000 0.000000
											CHANNELS 3 Xrotation Yrotation Zrotation
											End Site
											{
												OFFSET -0.057701 4.578827 0.399218
											}
										}
									}
								}
								JOINT newVegas:RightHandRing1
								{
									OFFSET -17.732719 0.121887 -4.201567
									CHANNELS 3 Xrotation Yrotation Zrotation
									JOINT newVegas:RightHandRing2
									{
										OFFSET -2.733170 0.000000 0.000000
										CHANNELS 3 Xrotation Yrotation Zrotation
										JOINT newVegas:RightHandRing3
										{
											OFFSET -3.178268 0.000000 0.000000
											CHANNELS 3 Xrotation Yrotation Zrotation
											End Site
											{
												OFFSET -0.119102 3.170624 0.185394
											}
										}
									}
								}
								JOINT newVegas:RightHandPinky1
								{
									OFFSET -15.989624 -0.606689 -7.535461
									CHANNELS 3 Xrotation Yrotation Zrotation
									JOINT newVegas:RightHandPinky2
									{
										OFFSET -2.538986 0.000000 0.000000
										CHANNELS 3 Xrotation Yrotation Zrotation
										JOINT newVegas:RightHandPinky3
										{
											OFFSET -2.593102 0.000000 0.000000
											CHANNELS 3 Xrotation Yrotation Zrotation
											End Site
											{
												OFFSET 0.150902 2.584198 0.152708
											}
										}
									}
								}
							}
							JOINT newVegas:Right_CapeC
							{
								OFFSET -15.715958 -8.608795 -6.935905
								CHANNELS 3 Xrotation Yrotation Zrotation
								JOINT newVegas:Right_CapeC1
								{
									OFFSET 0.000000 -8.688499 0.000000
									CHANNELS 3 Xrotation Yrotation Zrotation
									End Site
									{
										OFFSET 0.000000 8.688499 0.000000
									}
								}
							}
							JOINT newVegas:Right_Sleeve
							{
								OFFSET -0.267448 -0.649994 0.577675
								CHANNELS 3 Xrotation Yrotation Zrotation
								End Site
								{
									OFFSET 0.000000 15.991302 0.000000
								}
							}
						}
						JOINT newVegas:Right_CapeA
						{
							OFFSET -5.115540 -8.608795 -10.395824
							CHANNELS 3 Xrotation Yrotation Zrotation
							JOINT newVegas:Right_CapeA1
							{
								OFFSET 0.000000 -8.688499 0.000000
								CHANNELS 3 Xrotation Yrotation Zrotation
								End Site
								{
									OFFSET 0.000000 8.688499 0.000000
								}
							}
						}
						JOINT newVegas:Right_CapeB
						{
							OFFSET -26.118187 -8.608795 -7.079266
							CHANNELS 3 Xrotation Yrotation Zrotation
							JOINT newVegas:Right_CapeB1
							{
								OFFSET 0.000000 -8.688499 0.000000
								CHANNELS 3 Xrotation Yrotation Zrotation
								End Site
								{
									OFFSET 0.000000 8.688499 0.000000
								}
							}
						}
					}
				}
				JOINT newVegas:Left_Collar
				{
					OFFSET 18.625099 8.655502 8.828100
					CHANNELS 3 Xrotation Yrotation Zrotation
					JOINT newVegas:Left_Collar1
					{
						OFFSET 14.783401 10.540405 -1.259500
						CHANNELS 3 Xrotation Yrotation Zrotation
						End Site
						{
							OFFSET 0.000000 18.199875 0.000000
						}
					}
				}
				JOINT newVegas:Collar_Back
				{
					OFFSET 0.000000 15.630707 -20.132601
					CHANNELS 3 Xrotation Yrotation Zrotation
					End Site
					{
						OFFSET 0.000000 22.523010 0.000000
					}
				}
				JOINT newVegas:Left_Peck
				{
					OFFSET 17.239599 -5.132599 25.482599
					CHANNELS 3 Xrotation Yrotation Zrotation
					End Site
					{
						OFFSET 0.000000 22.523010 0.000000
					}
				}
				JOINT newVegas:Right_Peck
				{
					OFFSET -17.239599 -5.132202 25.482599
					CHANNELS 3 Xrotation Yrotation Zrotation
					End Site
					{
						OFFSET 0.000000 22.523010 0.000000
					}
				}
				JOINT newVegas:Right_Collar
				{
					OFFSET -18.625099 8.655792 8.828100
					CHANNELS 3 Xrotation Yrotation Zrotation
					JOINT newVegas:Right_Collar1
					{
						OFFSET -14.783401 10.539993 -1.259500
						CHANNELS 3 Xrotation Yrotation Zrotation
						End Site
						{
							OFFSET 0.000000 18.199631 0.000000
						}
					}
				}
			}
		}
		JOINT newVegas:Belly
		{
			OFFSET 0.000000 -6.540398 9.014299
			CHANNELS 3 Xrotation Yrotation Zrotation
			End Site
			{
				OFFSET 0.000000 11.566666 0.000000
			}
		}
	}
	JOINT newVegas:ElvisFacialAnim_Joint
	{
		OFFSET 1.000000 -95.330101 -8.825800
		CHANNELS 3 Xrotation Yrotation Zrotation
		End Site
		{
			OFFSET 0.000000 35.315800 0.000000
		}
	}
}
MOTION
Frames: 4
Frame Time: 0.033333
-1.778115 91.970215 3.158090 2.468874 -26.090595 0.680961 -0.000000 0.000001 -0.000000 -25.988433 0.373532 7.583889 34.193945 -5.207384 -0.140230 -10.732788 0.691381 -3.945228 -0.000000 -0.000000 -0.000000 -0.000000 -0.000002 0.000000 8.213334 -13.420736 -10.353107 15.820636 -9.967561 -0.338659 -12.429822 -2.250586 13.203002 0.000001 0.000002 -0.000001 0.000002 0.000000 -0.000001 3.572082 3.891601 -1.125452 1.704631 1.449247 -0.389398 1.742623 1.397709 -0.376995 -0.927567 0.405103 4.186697 -0.927560 0.405097 4.186696 0.000000 0.000000 0.000000 -0.927564 0.405107 4.186691 -0.927563 0.405105 4.186699 0.000000 -0.000002 -0.000000 0.000000 0.000000 0.000000 2.554975 2.279877 15.165481 -24.499644 -43.909077 -15.323820 0.000000 -112.384636 0.000000 0.931230 -34.050081 29.772651 -1.688180 -5.345852 -1.749924 9.175014 37.019827 3.165299 -0.000000 -0.000003 -0.000005 5.853234 8.198725 -89.345664 6.123451 5.844744 -92.672813 0.000002 0.000000 0.000003 5.415328 8.177466 -85.047651 7.042836 5.728796 -101.772441 0.000000 0.000003 0.000002 6.419897 8.177862 -94.905683 6.123448 5.844727 -92.672799 -0.000001 0.000001 -0.000001 6.011792 8.198396 -90.899518 6.123426 5.844725 -92.672826 0.000000 -0.000003 -0.000000 0.000000 0.000001 -0.000000 0.000000 0.000001 -0.000000 0.000000 0.000000 0.000000 0.000000 0.000000 -0.000000 0.000000 -0.000001 -0.000000 0.000000 0.000000 -0.000000 0.000000 0.000001 0.000000 0.841309 7.022364 1.603810 -36.543028 28.339722 24.297116 0.000766 103.731490 -0.000757 -67.512117 -4.457071 33.739570 29.860064 10.904023 19.100448 3.489949 -32.554403 -30.342917 0.000000 0.000002 0.000003 0.661328 1.607757 19.726691 2.340463 -4.041166 60.141352 0.000003 0.000002 -0.000002 2.752254 -6.509870 62.342360 6.205417 -4.392801 109.437054 0.000000 0.000001 -0.000001 4.578779 -7.022392 77.077339 5.352565 -4.605054 98.596724 0.000001 0.000001 0.000001 7.317597 -14.667413 76.257805 2.220201 -3.969831 58.419639 0.000001 0.000003 0.000001 -0.000001 0.000002 -0.000002 0.000001 0.000002 0.000000 -0.000001 0.000002 -0.000001 -0.000003 0.000001 0.000000 -0.000003 0.000002 -0.000001 -0.000003 0.000001 0.000000 -0.000003 0.000002 -0.000001 0.000001 -0.000000 0.000000 0.000001 -0.000000 0.000000 0.000001 -0.000000 0.000000 0.000001 -0.000000 0.000000 0.000001 -0.000000 0.000000 0.000001 -0.000000 0.000000 0.000001 -0.000000 0.000000 0.000000 -0.000000 -0.000000 -0.000000 0.000001 -0.000000 
-1.792969 91.972214 3.176429 2.459504 -26.103450 0.684778 -0.000000 0.000001 -0.000000 -25.944554 0.375743 7.581236 34.181006 -5.198518 -0.141599 -10.754217 0.693887 -3.949688 -0.000000 0.000001 -0.000000 -0.000001 0.000000 0.000001 8.259589 -13.420198 -10.350943 15.777500 -9.975658 -0.339098 -12.427481 -2.246826 13.191607 -0.000000 0.000001 0.000000 -0.000000 0.000003 -0.000002 3.554706 3.890635 -1.137201 1.703049 1.451036 -0.387073 1.741428 1.399815 -0.375007 -0.905838 0.400554 4.208810 -0.905844 0.400560 4.208804 0.000001 0.000002 -0.000000 -0.905839 0.400550 4.208810 -0.905839 0.400579 4.208805 0.000001 0.000002 -0.000001 0.000001 0.000002 0.000000 2.554525 2.246681 15.229088 -24.489701 -43.889764 -15.386468 0.000001 -112.403344 -0.000000 0.940366 -34.049019 29.762488 -1.688175 -5.345858 -1.749922 9.175014 37.019827 3.165297 0.000003 -0.000003 -0.000001 5.853233 8.198721 -89.345657 6.123450 5.844744 -92.672819 -0.000000 0.000000 -0.000001 5.415329 8.177466 -85.047658 7.042833 5.728796 -101.772448 -0.000000 -0.000003 -0.000000 6.419898 8.177858 -94.905677 6.123443 5.844725 -92.672806 -0.000001 0.000001 0.000004 6.011789 8.198394 -90.899518 6.123425 5.844722 -92.672826 0.000000 -0.000005 -0.000002 0.000000 -0.000000 -0.000000 0.000000 -0.000000 -0.000000 0.000000 -0.000000 -0.000000 0.000000 0.000003 0.000000 0.000000 0.000002 0.000000 0.000000 0.000003 0.000000 0.000000 0.000003 0.000000 0.838783 7.040191 1.672821 -36.573030 28.324332 24.284662 0.000511 103.694580 -0.000508 -67.553843 -4.452851 33.811776 29.860064 10.904023 19.100453 3.489947 -32.554403 -30.342914 -0.000000 -0.000001 0.000001 0.661323 1.607754 19.726695 2.340462 -4.041165 60.141359 -0.000001 0.000000 0.000001 2.752259 -6.509868 62.342367 6.205419 -4.392801 109.437054 0.000002 0.000001 -0.000000 4.578777 -7.022389 77.077346 5.352556 -4.605054 98.596724 -0.000001 0.000001 0.000002 7.317591 -14.667408 76.257812 2.220201 -3.969835 58.419639 -0.000002 0.000001 0.000001 -0.000001 -0.000001 0.000001 0.000000 0.000000 -0.000002 -0.000001 -0.000001 0.000001 -0.000001 0.000000 0.000000 -0.000001 0.000001 0.000000 -0.000001 0.000000 0.000000 -0.000001 0.000001 -0.000000 0.000001 0.000000 -0.000000 0.000001 0.000000 -0.000000 0.000001 0.000000 -0.000000 0.000001 0.000000 -0.000000 0.000001 0.000000 -0.000000 0.000001 0.000000 -0.000000 0.000001 0.000000 -0.000000 0.000000 0.000000 -0.000000 -0.000000 0.000001 -0.000000 
-1.808764 91.973915 3.195451 2.451344 -26.123448 0.691286 0.000000 -0.000001 -0.000000 -25.897145 0.379641 7.578715 34.166946 -5.182329 -0.144734 -10.778384 0.696620 -3.955069 -0.000000 -0.000001 0.000000 -0.000000 -0.000000 0.000000 8.296085 -13.421928 -10.356221 15.745251 -9.978105 -0.338211 -12.429435 -2.239917 13.180826 0.000000 -0.000002 0.000000 0.000001 0.000001 -0.000002 3.549566 3.879938 -1.139252 1.700642 1.447529 -0.384765 1.739089 1.396493 -0.372729 -0.896723 0.400446 4.217893 -0.896719 0.400443 4.217898 0.000000 0.000001 -0.000000 -0.896723 0.400458 4.217895 -0.896656 0.400436 4.217903 0.000000 -0.000001 0.000000 0.000000 0.000001 -0.000001 2.551621 2.254504 15.260777 -24.472185 -43.862812 -15.433171 -0.000001 -112.443007 0.000001 0.945315 -34.029082 29.752570 -1.688180 -5.345855 -1.749923 9.175012 37.019823 3.165301 0.000001 -0.000003 -0.000001 5.853232 8.198727 -89.345664 6.123451 5.844743 -92.672819 0.000002 -0.000002 -0.000001 5.415328 8.177469 -85.047658 7.042833 5.728796 -101.772441 -0.000001 0.000001 0.000001 6.419895 8.177862 -94.905683 6.123447 5.844731 -92.672806 -0.000002 0.000001 0.000002 6.011790 8.198393 -90.899518 6.123419 5.844725 -92.672826 0.000001 -0.000007 -0.000003 0.000000 0.000000 0.000000 0.000000 0.000000 0.000000 0.000000 -0.000000 0.000000 0.000000 0.000002 -0.000000 0.000000 0.000001 -0.000000 0.000000 0.000002 -0.000000 0.000000 0.000003 -0.000000 0.837749 7.049784 1.699752 -36.592896 28.327871 24.279241 -0.000392 103.677771 0.000376 -67.582249 -4.459498 33.857586 29.860061 10.904023 19.100452 3.489946 -32.554399 -30.342914 0.000000 0.000000 0.000001 0.661326 1.607756 19.726691 2.340466 -4.041166 60.141352 -0.000002 -0.000004 -0.000000 2.752258 -6.509870 62.342367 6.205419 -4.392802 109.437061 0.000003 0.000002 -0.000003 4.578772 -7.022395 77.077346 5.352561 -4.605051 98.596724 -0.000001 -0.000001 -0.000000 7.317596 -14.667409 76.257812 2.220205 -3.969837 58.419646 -0.000000 0.000003 0.000001 -0.000000 -0.000001 -0.000000 -0.000000 -0.000003 -0.000001 -0.000000 -0.000001 0.000001 -0.000000 0.000002 -0.000002 -0.000000 0.000003 -0.000002 -0.000000 0.000002 -0.000002 -0.000000 0.000003 -0.000003 0.000001 0.000000 0.000000 0.000001 0.000000 0.000000 0.000001 0.000000 0.000000 0.000001 0.000000 0.000000 0.000001 0.000000 0.000000 0.000001 0.000000 0.000000 0.000001 0.000000 0.000000 -0.000000 0.000000 0.000000 0.000000 -0.000001 -0.000000 
-1.824471 91.975288 3.213951 2.443040 -26.141149 0.697608 0.000000 0.000001 -0.000000 -25.851525 0.384686 7.577381 34.153917 -5.165949 -0.148160 -10.801685 0.699252 -3.960866 -0.000000 0.000001 -0.000000 -0.000000 -0.000001 0.000000 8.331087 -13.426911 -10.362369 15.714054 -9.971756 -0.336626 -12.432409 -2.233366 13.171361 0.000000 0.000001 0.000001 0.000000 -0.000001 0.000001 3.549559 3.861130 -1.134199 1.697540 1.439754 -0.382511 1.735817 1.388812 -0.370352 -0.894922 0.403399 4.217184 -0.894927 0.403401 4.217185 -0.000000 0.000001 -0.000000 -0.894924 0.403395 4.217187 -0.894925 0.403393 4.217185 -0.000000 -0.000001 0.000001 -0.000000 0.000001 0.000000 2.548286 2.282014 15.265229 -24.445659 -43.834170 -15.457744 -0.000000 -112.481720 -0.000000 0.947249 -33.987735 29.743923 -1.688180 -5.345858 -1.749925 9.175010 37.019823 3.165293 0.000001 -0.000003 0.000002 5.853233 8.198725 -89.345657 6.123447 5.844744 -92.672813 -0.000002 0.000002 0.000001 5.415331 8.177464 -85.047658 7.042828 5.728798 -101.772448 -0.000001 -0.000001 -0.000002 6.419897 8.177861 -94.905683 6.123446 5.844729 -92.672799 -0.000000 0.000001 0.000000 6.011790 8.198389 -90.899518 6.123422 5.844718 -92.672826 0.000001 -0.000003 -0.000001 -0.000000 0.000000 0.000000 -0.000000 0.000000 0.000000 -0.000000 -0.000000 0.000000 -0.000000 -0.000002 0.000000 -0.000000 -0.000003 0.000000 -0.000000 -0.000002 0.000000 0.000000 -0.000001 0.000000 0.837910 7.052219 1.694142 -36.591540 28.337234 24.277974 0.000060 103.686506 -0.000070 -67.591279 -4.474083 33.870160 29.860061 10.904022 19.100452 3.489949 -32.554399 -30.342917 0.000001 -0.000002 -0.000001 0.661323 1.607755 19.726695 2.340462 -4.041166 60.141352 0.000000 0.000002 0.000003 2.752256 -6.509868 62.342367 6.205416 -4.392802 109.437054 0.000001 -0.000001 0.000002 4.578773 -7.022394 77.077346 5.352562 -4.605051 98.596724 -0.000002 0.000001 -0.000002 7.317591 -14.667408 76.257819 2.220204 -3.969839 58.419646 -0.000002 0.000005 0.000001 -0.000000 0.000003 -0.000000 0.000001 -0.000001 0.000002 -0.000000 0.000003 0.000001 -0.000001 -0.000001 0.000001 -0.000001 0.000000 0.000001 -0.000001 -0.000001 0.000001 -0.000001 0.000000 0.000002 0.000001 0.000001 -0.000000 0.000001 0.000001 -0.000000 0.000001 0.000001 -0.000000 0.000001 0.000001 -0.000000 0.000001 0.000001 -0.000000 0.000001 0.000001 -0.000000 0.000001 0.000001 -0.000000 0.000000 -0.000002 -0.000000 0.000000 0.000001 -0.000000 
